#Comment line ignore any data following # character 
#Hierarchical Translation and Rotation (.htr) file 
[Header]	
#Header keywords are followed by a single value 
FileType HTR		#Single word string
DataType HTRS		#Translation followed by rotation and scale data
FileVersion 1		#integer
NumSegments 84		#integer
NumFrames 2		#integer
DataFrameRate 30		#integer, data frame rate in this file
EulerRotationOrder ZYX
CalibrationUnits mm
RotationUnits Degrees
GlobalAxisofGravity Y
BoneLengthAxis Y
ScaleFactor 1.00
[SegmentNames&Hierarchy]
#CHILD	PARENT
MASTER GLOBAL
root MASTER
chest root
L_mid_tent01 root
R_mid_tent01 root
spine01 root
Bip01_Neck chest
L_humerus chest
R_humerus chest
weapon_bone chest
Bip01_Head Bip01_Neck
eye_left_bone Bip01_Head
eye_right_bone Bip01_Head
L_forearm L_humerus
L_front_hand L_forearm
L_weapon_bone L_forearm
L_front_hand01_01 L_front_hand
L_front_hand02_01 L_front_hand
L_front_hand03_01 L_front_hand
L_front_hand01_02 L_front_hand01_01
L_front_hand02_02 L_front_hand02_01
L_front_hand03_02 L_front_hand03_01
R_forearm R_humerus
R_front_hand R_forearm
R_weapon_bone R_forearm
R_front_hand01_01 R_front_hand
R_front_hand02_01 R_front_hand
R_front_hand03_01 R_front_hand
R_front_hand01_02 R_front_hand01_01
R_front_hand02_02 R_front_hand02_01
R_front_hand03_02 R_front_hand03_01
null_rope01_connect L_mid_tent01
Rope1_Seg01 null_rope01_connect
Rope1_Seg02 Rope1_Seg01
Rope1_Seg03 Rope1_Seg02
Rope1_Seg04 Rope1_Seg03
Rope1_Seg05 Rope1_Seg04
Rope1_Seg06 Rope1_Seg05
Rope1_Seg07 Rope1_Seg06
Rope1_Seg09 Rope1_Seg07
L_mid_hand01 Rope1_Seg09
L_mid_hand02 Rope1_Seg09
L_mid_hand03 Rope1_Seg09
null_rope02_connect R_mid_tent01
Rope2_Seg01 null_rope02_connect
Rope2_Seg02 Rope2_Seg01
Rope2_Seg03 Rope2_Seg02
Rope2_Seg04 Rope2_Seg03
Rope2_Seg05 Rope2_Seg04
Rope2_Seg06 Rope2_Seg05
Rope2_Seg07 Rope2_Seg06
Rope2_Seg09 Rope2_Seg07
R_mid_hand01 Rope2_Seg09
R_mid_hand02 Rope2_Seg09
R_mid_hand03 Rope2_Seg09
spine02 spine01
spine03 spine02
pelvis spine03
null_rope03_connect pelvis
null_rope04_connect pelvis
Rope3_Seg01 null_rope03_connect
Rope3_Seg02 Rope3_Seg01
Rope3_Seg03 Rope3_Seg02
Rope3_Seg04 Rope3_Seg03
Rope3_Seg05 Rope3_Seg04
Rope3_Seg06 Rope3_Seg05
Rope3_Seg07 Rope3_Seg06
Rope3_Seg08 Rope3_Seg07
Rope3_Seg09 Rope3_Seg08
R_rear_hand01 Rope3_Seg09
R_rear_hand02 Rope3_Seg09
R_rear_hand03 Rope3_Seg09
Rope4_Seg01 null_rope04_connect
Rope4_Seg02 Rope4_Seg01
Rope4_Seg03 Rope4_Seg02
Rope4_Seg04 Rope4_Seg03
Rope4_Seg05 Rope4_Seg04
Rope4_Seg06 Rope4_Seg05
Rope4_Seg07 Rope4_Seg06
Rope4_Seg08 Rope4_Seg07
Rope4_Seg09 Rope4_Seg08
L_rear_hand01 Rope4_Seg09
L_rear_hand02 Rope4_Seg09
L_rear_hand03 Rope4_Seg09
[BasePosition]
#SegmentName Tx, Ty, Tz, Rx, Ry, Rz, BoneLength
MASTER 0.000000 0.000000 0.000000 -90.000000 0.000000 0.000000 10.000000 
root 0.000000 0.000000 0.000000 0.000000 0.000000 0.000000 10.000000 
chest 0.000000 0.000000 0.000000 0.000000 0.000000 0.000000 10.000000 
L_mid_tent01 0.000000 0.000000 0.000000 0.000000 0.000000 0.000000 10.000000 
R_mid_tent01 0.000000 0.000000 0.000000 0.000000 0.000000 0.000000 10.000000 
spine01 0.000000 0.000000 0.000000 0.000000 0.000000 0.000000 10.000000 
Bip01_Neck 0.000000 0.000000 0.000000 0.000000 0.000000 0.000000 10.000000 
L_humerus 0.000000 0.000000 0.000000 0.000000 0.000000 0.000000 10.000000 
R_humerus 0.000000 0.000000 0.000000 0.000000 0.000000 0.000000 10.000000 
weapon_bone 0.000000 0.000000 0.000000 0.000000 0.000000 0.000000 10.000000 
Bip01_Head 0.000000 0.000000 0.000000 0.000000 0.000000 0.000000 10.000000 
eye_left_bone 0.000000 0.000000 0.000000 0.000000 0.000000 0.000000 10.000000 
eye_right_bone 0.000000 0.000000 0.000000 0.000000 0.000000 0.000000 10.000000 
L_forearm 0.000000 0.000000 0.000000 0.000000 0.000000 0.000000 10.000000 
L_front_hand 0.000000 0.000000 0.000000 0.000000 0.000000 0.000000 10.000000 
L_weapon_bone 0.000000 0.000000 0.000000 0.000000 0.000000 0.000000 10.000000 
L_front_hand01_01 0.000000 0.000000 0.000000 0.000000 0.000000 0.000000 10.000000 
L_front_hand02_01 0.000000 0.000000 0.000000 0.000000 0.000000 0.000000 10.000000 
L_front_hand03_01 0.000000 0.000000 0.000000 0.000000 0.000000 0.000000 10.000000 
L_front_hand01_02 0.000000 0.000000 0.000000 0.000000 0.000000 0.000000 10.000000 
L_front_hand02_02 0.000000 0.000000 0.000000 0.000000 0.000000 0.000000 10.000000 
L_front_hand03_02 0.000000 0.000000 0.000000 0.000000 0.000000 0.000000 10.000000 
R_forearm 0.000000 0.000000 0.000000 0.000000 0.000000 0.000000 10.000000 
R_front_hand 0.000000 0.000000 0.000000 0.000000 0.000000 0.000000 10.000000 
R_weapon_bone 0.000000 0.000000 0.000000 0.000000 0.000000 0.000000 10.000000 
R_front_hand01_01 0.000000 0.000000 0.000000 0.000000 0.000000 0.000000 10.000000 
R_front_hand02_01 0.000000 0.000000 0.000000 0.000000 0.000000 0.000000 10.000000 
R_front_hand03_01 0.000000 0.000000 0.000000 0.000000 0.000000 0.000000 10.000000 
R_front_hand01_02 0.000000 0.000000 0.000000 0.000000 0.000000 0.000000 10.000000 
R_front_hand02_02 0.000000 0.000000 0.000000 0.000000 0.000000 0.000000 10.000000 
R_front_hand03_02 0.000000 0.000000 0.000000 0.000000 0.000000 0.000000 10.000000 
null_rope01_connect 0.000000 0.000000 0.000000 0.000000 0.000000 0.000000 10.000000 
Rope1_Seg01 0.000000 0.000000 0.000000 0.000000 0.000000 0.000000 10.000000 
Rope1_Seg02 0.000000 0.000000 0.000000 0.000000 0.000000 0.000000 10.000000 
Rope1_Seg03 0.000000 0.000000 0.000000 0.000000 0.000000 0.000000 10.000000 
Rope1_Seg04 0.000000 0.000000 0.000000 0.000000 0.000000 0.000000 10.000000 
Rope1_Seg05 0.000000 0.000000 0.000000 0.000000 0.000000 0.000000 10.000000 
Rope1_Seg06 0.000000 0.000000 0.000000 0.000000 0.000000 0.000000 10.000000 
Rope1_Seg07 0.000000 0.000000 0.000000 0.000000 0.000000 0.000000 10.000000 
Rope1_Seg09 0.000000 0.000000 0.000000 0.000000 0.000000 0.000000 10.000000 
L_mid_hand01 0.000000 0.000000 0.000000 0.000000 0.000000 0.000000 10.000000 
L_mid_hand02 0.000000 0.000000 0.000000 0.000000 0.000000 0.000000 10.000000 
L_mid_hand03 0.000000 0.000000 0.000000 0.000000 0.000000 0.000000 10.000000 
null_rope02_connect 0.000000 0.000000 0.000000 0.000000 0.000000 0.000000 10.000000 
Rope2_Seg01 0.000000 0.000000 0.000000 0.000000 0.000000 0.000000 10.000000 
Rope2_Seg02 0.000000 0.000000 0.000000 0.000000 0.000000 0.000000 10.000000 
Rope2_Seg03 0.000000 0.000000 0.000000 0.000000 0.000000 0.000000 10.000000 
Rope2_Seg04 0.000000 0.000000 0.000000 0.000000 0.000000 0.000000 10.000000 
Rope2_Seg05 0.000000 0.000000 0.000000 0.000000 0.000000 0.000000 10.000000 
Rope2_Seg06 0.000000 0.000000 0.000000 0.000000 0.000000 0.000000 10.000000 
Rope2_Seg07 0.000000 0.000000 0.000000 0.000000 0.000000 0.000000 10.000000 
Rope2_Seg09 0.000000 0.000000 0.000000 0.000000 0.000000 0.000000 10.000000 
R_mid_hand01 0.000000 0.000000 0.000000 0.000000 0.000000 0.000000 10.000000 
R_mid_hand02 0.000000 0.000000 0.000000 0.000000 0.000000 0.000000 10.000000 
R_mid_hand03 0.000000 0.000000 0.000000 0.000000 0.000000 0.000000 10.000000 
spine02 0.000000 0.000000 0.000000 0.000000 0.000000 0.000000 10.000000 
spine03 0.000000 0.000000 0.000000 0.000000 0.000000 0.000000 10.000000 
pelvis 0.000000 0.000000 0.000000 0.000000 0.000000 0.000000 10.000000 
null_rope03_connect 0.000000 0.000000 0.000000 0.000000 0.000000 0.000000 10.000000 
null_rope04_connect 0.000000 0.000000 0.000000 0.000000 0.000000 0.000000 10.000000 
Rope3_Seg01 0.000000 0.000000 0.000000 0.000000 0.000000 0.000000 10.000000 
Rope3_Seg02 0.000000 0.000000 0.000000 0.000000 0.000000 0.000000 10.000000 
Rope3_Seg03 0.000000 0.000000 0.000000 0.000000 0.000000 0.000000 10.000000 
Rope3_Seg04 0.000000 0.000000 0.000000 0.000000 0.000000 0.000000 10.000000 
Rope3_Seg05 0.000000 0.000000 0.000000 0.000000 0.000000 0.000000 10.000000 
Rope3_Seg06 0.000000 0.000000 0.000000 0.000000 0.000000 0.000000 10.000000 
Rope3_Seg07 0.000000 0.000000 0.000000 0.000000 0.000000 0.000000 10.000000 
Rope3_Seg08 0.000000 0.000000 0.000000 0.000000 0.000000 0.000000 10.000000 
Rope3_Seg09 0.000000 0.000000 0.000000 0.000000 0.000000 0.000000 10.000000 
R_rear_hand01 0.000000 0.000000 0.000000 0.000000 0.000000 0.000000 10.000000 
R_rear_hand02 0.000000 0.000000 0.000000 0.000000 0.000000 0.000000 10.000000 
R_rear_hand03 0.000000 0.000000 0.000000 0.000000 0.000000 0.000000 10.000000 
Rope4_Seg01 0.000000 0.000000 0.000000 0.000000 0.000000 0.000000 10.000000 
Rope4_Seg02 0.000000 0.000000 0.000000 0.000000 0.000000 0.000000 10.000000 
Rope4_Seg03 0.000000 0.000000 0.000000 0.000000 0.000000 0.000000 10.000000 
Rope4_Seg04 0.000000 0.000000 0.000000 0.000000 0.000000 0.000000 10.000000 
Rope4_Seg05 0.000000 0.000000 0.000000 0.000000 0.000000 0.000000 10.000000 
Rope4_Seg06 0.000000 0.000000 0.000000 0.000000 0.000000 0.000000 10.000000 
Rope4_Seg07 0.000000 0.000000 0.000000 0.000000 0.000000 0.000000 10.000000 
Rope4_Seg08 0.000000 0.000000 0.000000 0.000000 0.000000 0.000000 10.000000 
Rope4_Seg09 0.000000 0.000000 0.000000 0.000000 0.000000 0.000000 10.000000 
L_rear_hand01 0.000000 0.000000 0.000000 0.000000 0.000000 0.000000 10.000000 
L_rear_hand02 0.000000 0.000000 0.000000 0.000000 0.000000 0.000000 10.000000 
L_rear_hand03 0.000000 0.000000 0.000000 0.000000 0.000000 0.000000 10.000000 
#Beginning of Data. Separated by tabs
#Fr	Tx	Ty	Tz	Rx	Ry	Rz	SF
[MASTER]
51 -349.280853 -1631.241577 0.177432 0.001660 0.001660 0.001660 1668.216431
52 -347.702698 -1685.931274 0.201622 0.001660 0.001660 0.001660 1721.412598
[root]
51 -16.502264 -62.822109 1275.081543 -65.553040 -41.947552 -105.939056 1276.734863
52 -16.502264 -62.822109 1289.613525 -67.238991 -39.542248 -104.790840 1291.248169
[chest]
51 -84.512650 -34.090519 0.000000 0.080729 0.302860 176.219330 91.129311
52 -84.512650 -34.090519 0.000000 -0.346067 0.384840 175.218185 91.129311
[L_mid_tent01]
51 27.299475 22.177610 -249.918274 16.437870 49.037323 90.095573 252.381165
52 27.299477 22.177612 -249.918274 12.539429 47.293495 85.213791 252.381165
[R_mid_tent01]
51 23.228794 24.509907 226.238495 170.848129 -30.199688 64.377533 228.744751
52 23.228794 24.509907 226.238495 171.397049 -30.346678 63.284946 228.744751
[spine01]
51 -0.361383 -0.195265 0.000000 0.001845 0.001451 13.654368 0.410763
52 -0.361383 -0.195265 0.000000 0.001845 0.001451 13.654368 0.410763
[Bip01_Neck]
51 165.484543 71.581718 0.000119 176.643677 -1.657967 43.431911 180.302734
52 165.484543 71.581718 0.000119 176.643677 -1.657967 43.431911 180.302734
[L_humerus]
51 -13.983130 -135.272980 -120.471481 -176.907715 6.424972 -85.991272 181.680161
52 -13.983130 -135.272980 -120.471481 -177.276306 7.288527 -86.432259 181.680161
[R_humerus]
51 -13.983309 -135.273102 125.287651 -175.788712 4.322226 -97.572815 184.909012
52 -13.983309 -135.273102 125.287651 -175.173553 3.413091 -98.295158 184.909012
[weapon_bone]
51 235.964890 -300.705902 0.000000 0.000000 -89.951546 -128.212341 382.234833
52 235.964890 -300.705902 0.000000 0.000000 -89.951546 -128.212341 382.234833
[Bip01_Head]
51 213.444443 185.715561 11.776993 -17.580263 -11.139184 -16.379978 283.173981
52 213.444443 185.715576 11.776993 -18.068119 -11.306645 -19.551991 283.173981
[eye_left_bone]
51 -24.626970 125.451866 -64.772606 0.000000 -90.000000 -99.840431 143.318359
52 -24.626970 125.451866 -64.772606 0.000000 -90.000000 -99.840431 143.318359
[eye_right_bone]
51 -24.626970 125.451866 64.327362 0.000000 -89.965736 80.156380 143.117676
52 -24.626970 125.451866 64.327362 0.000000 -89.965736 80.156380 143.117676
[L_forearm]
51 322.776093 0.000000 -0.000119 0.000134 -0.002343 -96.531914 322.776093
52 322.776093 0.000000 -0.000119 0.000129 -0.002344 -96.319633 322.776093
[L_front_hand]
51 241.149185 -0.042021 -3.300071 149.893951 -1.837326 -27.423067 241.171753
52 241.149185 -0.042021 -3.300071 149.893951 -1.837326 -27.423067 241.171753
[L_weapon_bone]
51 156.183838 0.000000 0.000000 0.000014 0.000007 0.000001 156.183838
52 156.183838 0.000000 0.000000 0.000014 0.000007 0.000001 156.183838
[L_front_hand01_01]
51 86.095154 20.947098 -0.655860 -0.366594 -0.477154 75.385574 88.609184
52 86.095154 20.947098 -0.655860 -0.366594 -0.477154 75.385574 88.609184
[L_front_hand02_01]
51 86.935165 -11.437475 24.513514 154.399796 -59.883835 -61.369587 91.046425
52 86.935165 -11.437475 24.513514 154.399796 -59.883835 -61.369587 91.046425
[L_front_hand03_01]
51 86.637497 -14.123976 -20.424902 -153.913849 58.118122 -62.702866 90.126129
52 86.637497 -14.123976 -20.424902 -153.913849 58.118107 -62.702850 90.126129
[L_front_hand01_02]
51 71.020905 -0.000179 0.000030 0.000334 -0.002323 -106.379684 71.020905
52 71.020905 -0.000179 0.000030 0.000334 -0.002323 -106.379684 71.020905
[L_front_hand02_02]
51 71.020927 -0.000119 0.000060 0.000334 -0.002323 -106.379684 71.020927
52 71.020927 -0.000119 0.000060 0.000334 -0.002323 -106.379684 71.020927
[L_front_hand03_02]
51 71.020905 -0.000060 0.000060 0.000334 -0.002323 -106.379684 71.020905
52 71.020905 -0.000060 0.000060 0.000334 -0.002323 -106.379684 71.020905
[R_forearm]
51 322.776428 -0.000060 0.000030 0.135091 -0.164998 -39.779758 322.776428
52 322.776428 -0.000060 0.000030 0.152510 -0.147479 -47.155067 322.776428
[R_front_hand]
51 238.847015 -0.006795 2.210259 -8.879457 -10.642941 -26.315098 238.857239
52 238.847015 -0.006795 2.210259 -8.879457 -10.642941 -26.315098 238.857239
[R_weapon_bone]
51 155.664093 0.002503 -0.000030 0.003487 0.001180 -90.988930 155.664078
52 155.664093 0.002503 -0.000030 0.003487 0.001180 -90.988930 155.664078
[R_front_hand01_01]
51 87.624611 14.231146 22.918642 -154.633514 -59.950634 61.746063 91.683487
52 87.624611 14.231146 22.918642 -154.633484 -59.950619 61.746037 91.683487
[R_front_hand02_01]
51 89.356956 14.367283 -19.491137 154.602661 58.302849 63.744389 92.579636
52 89.356956 14.367283 -19.491137 154.602676 58.302849 63.744389 92.579636
[R_front_hand03_01]
51 87.286232 -22.307278 -0.143439 0.162155 -0.423168 -75.767921 90.091743
52 87.286232 -22.307278 -0.143439 0.162155 -0.423168 -75.767921 90.091743
[R_front_hand01_02]
51 71.020905 0.000060 0.000119 0.002323 -0.000334 106.381714 71.020905
52 71.020905 0.000060 0.000119 0.002323 -0.000334 106.381714 71.020905
[R_front_hand02_02]
51 71.020844 -0.000030 -0.000119 0.002323 -0.000334 106.381714 71.020836
52 71.020844 -0.000030 -0.000119 0.002323 -0.000334 106.381714 71.020836
[R_front_hand03_02]
51 71.020905 0.000000 0.000030 0.002323 -0.000334 106.381714 71.020905
52 71.020905 0.000000 0.000030 0.002323 -0.000334 106.381714 71.020905
[null_rope01_connect]
51 328.732483 0.000000 -0.000238 -98.865196 -45.063084 143.368759 328.732483
52 328.732483 0.000000 -0.000238 -100.353378 -47.203133 145.655289 328.732483
[Rope1_Seg01]
51 -0.000025 0.000012 0.000047 117.160370 12.784090 175.822601 0.000054
52 -0.000025 0.000011 0.000045 116.769173 11.989918 176.989700 0.000052
[Rope1_Seg02]
51 139.999863 -0.000179 0.000000 14.969913 -21.582125 -14.920564 139.999863
52 139.999863 -0.000179 0.000000 15.880837 -20.516016 -16.022684 139.999863
[Rope1_Seg03]
51 139.999924 0.000060 -0.000060 16.905983 -36.358509 -20.599293 139.999924
52 139.999924 0.000060 -0.000060 18.686981 -33.989449 -21.477036 139.999924
[Rope1_Seg04]
51 139.999924 -0.000060 -0.000119 1.696011 -21.451178 -6.383508 139.999924
52 139.999924 -0.000060 -0.000119 2.735594 -20.826061 -5.421842 139.999924
[Rope1_Seg05]
51 139.999832 0.000119 -0.000060 -0.935193 -9.157724 6.972548 139.999832
52 139.999832 0.000119 -0.000060 -0.894215 -9.579311 8.656043 139.999832
[Rope1_Seg06]
51 139.999954 0.000119 -0.000060 0.164187 -8.239292 13.208725 139.999954
52 139.999954 0.000119 -0.000060 -0.289113 -8.262998 11.575744 139.999954
[Rope1_Seg07]
51 139.999985 0.000060 0.000000 -0.837553 -6.691308 6.623555 139.999985
52 139.999985 0.000060 0.000000 -0.963111 -6.239242 5.415458 139.999985
[Rope1_Seg09]
51 121.602913 0.000119 -0.000089 -89.793175 -1.359789 0.847147 121.602913
52 121.602913 0.000119 -0.000089 -89.793175 -1.359789 0.847147 121.602913
[L_mid_hand01]
51 103.859421 1.038730 8.195221 130.544373 -67.584534 -38.866943 104.187431
52 103.859421 1.038730 8.195221 130.544373 -67.584534 -38.866943 104.187431
[L_mid_hand02]
51 105.572853 -4.139662 -10.864139 -168.923172 43.409309 -73.498886 106.211075
52 105.572853 -4.139662 -10.864139 -168.923172 43.409309 -73.498886 106.211075
[L_mid_hand03]
51 104.641464 17.579376 -3.913581 -6.012627 17.808174 74.893669 106.179977
52 104.641464 17.579376 -3.913581 -6.012627 17.808174 74.893669 106.179977
[null_rope02_connect]
51 328.732849 0.000179 -0.000119 -117.634125 52.886021 -15.308475 328.732849
52 328.732849 0.000179 -0.000119 -119.560143 53.125957 -15.341399 328.732849
[Rope2_Seg01]
51 0.000065 0.000047 0.000000 0.041011 -4.512621 -31.765343 0.000080
52 0.000065 0.000045 0.000000 -2.578391 -0.622015 -32.330212 0.000079
[Rope2_Seg02]
51 139.999741 -0.000060 -0.000119 -42.085674 16.012760 9.555521 139.999756
52 139.999741 -0.000060 -0.000119 -51.613617 16.003119 11.588906 139.999756
[Rope2_Seg03]
51 140.000107 0.000030 0.000000 -52.034569 13.324600 45.698242 140.000107
52 140.000107 0.000030 0.000000 -43.318848 2.090234 39.794880 140.000107
[Rope2_Seg04]
51 139.999802 0.000000 -0.000060 -10.995203 -20.455967 28.056408 139.999802
52 139.999802 0.000000 -0.000060 -10.011897 -18.226048 24.170038 139.999802
[Rope2_Seg05]
51 139.999985 -0.000060 0.000119 -0.930616 -13.964396 7.520253 139.999985
52 139.999985 -0.000060 0.000119 -0.969594 -13.108549 7.271676 139.999985
[Rope2_Seg06]
51 139.999893 -0.000030 -0.000119 -0.956265 -12.877343 4.425878 139.999893
52 139.999893 -0.000030 -0.000119 -0.846607 -13.375872 4.045636 139.999893
[Rope2_Seg07]
51 139.999893 0.000060 -0.000060 -0.171271 -6.741088 3.187839 139.999893
52 139.999893 0.000060 -0.000060 -0.404941 -8.068143 3.302942 139.999893
[Rope2_Seg09]
51 121.338966 0.000089 -0.000060 33.793236 -1.359788 -0.847141 121.338966
52 121.338966 0.000089 -0.000060 33.793236 -1.359788 -0.847141 121.338966
[R_mid_hand01]
51 104.680779 11.144459 -10.335981 -16.212063 45.237247 70.462852 105.778534
52 104.680779 11.144459 -10.335981 -16.212063 45.237247 70.462852 105.778534
[R_mid_hand02]
51 104.070427 2.443552 8.231699 49.067368 -67.749771 39.286453 104.424065
52 104.070427 2.443552 8.231699 49.067368 -67.749771 39.286453 104.424065
[R_mid_hand03]
51 106.028137 -11.221827 -5.996406 -177.101105 15.551026 -76.585571 106.788818
52 106.028137 -11.221827 -5.996406 -177.101105 15.551026 -76.585571 106.788818
[spine02]
51 129.756927 0.001550 0.000119 -1.023899 -3.926965 6.770993 129.756927
52 129.756927 0.001550 0.000119 -1.023899 -3.926965 6.770993 129.756927
[spine03]
51 78.613846 0.087372 -4.898873 1.040680 4.146419 4.212375 78.766380
52 78.613846 0.087372 -4.898873 1.040681 4.146420 4.212376 78.766380
[pelvis]
51 169.435242 0.051022 0.000000 0.019518 -0.190233 -10.721436 169.435257
52 169.435242 0.051022 0.000000 0.019518 -0.190233 -10.721436 169.435257
[null_rope03_connect]
51 -1.257226 -2.466202 137.391083 2.348917 -72.286041 118.264305 137.418976
52 -1.257226 -2.466202 137.391083 -0.100704 -72.877945 118.052666 137.418976
[null_rope04_connect]
51 -1.259640 -2.480268 -137.844437 2.348917 -72.286041 118.264305 137.872513
52 -1.259640 -2.480268 -137.844437 -0.100704 -72.877945 118.052666 137.872513
[Rope3_Seg01]
51 -0.000022 0.000189 -0.000106 -153.969437 -48.574047 -53.580837 0.000217
52 -0.000022 0.000194 -0.000108 -151.011078 -44.128315 -54.383965 0.000223
[Rope3_Seg02]
51 139.999924 -0.000119 0.000060 -21.488716 -1.963861 -36.047096 139.999924
52 139.999924 -0.000119 0.000060 -20.021191 -1.346776 -34.387680 139.999924
[Rope3_Seg03]
51 139.999924 -0.000119 0.000119 -58.064983 9.068809 -29.979404 139.999924
52 139.999924 -0.000119 0.000119 -57.809921 9.676137 -31.340740 139.999924
[Rope3_Seg04]
51 139.999924 0.000119 0.000000 -45.476009 43.365765 -13.104474 139.999924
52 139.999924 0.000119 0.000000 -46.477840 40.809948 -15.358985 139.999924
[Rope3_Seg05]
51 139.999924 -0.000238 0.000060 -1.963160 21.237856 11.521663 139.999924
52 139.999924 -0.000238 0.000060 -3.272122 20.089901 9.211770 139.999924
[Rope3_Seg06]
51 139.999893 -0.000119 -0.000060 0.230984 5.766428 3.470282 139.999893
52 139.999893 -0.000119 -0.000060 -0.049004 5.739602 3.139089 139.999893
[Rope3_Seg07]
51 139.999771 0.000060 -0.000119 0.496388 3.223746 1.930473 139.999771
52 139.999771 0.000060 -0.000119 0.349005 3.241438 1.782874 139.999771
[Rope3_Seg08]
51 139.999985 -0.000060 0.000000 0.557655 1.811725 1.064068 139.999985
52 139.999985 -0.000060 0.000000 0.477535 1.827585 0.993609 139.999985
[Rope3_Seg09]
51 90.185997 -0.000179 -0.000060 89.793228 -1.359877 -0.847183 90.185997
52 90.185997 -0.000179 -0.000060 89.793228 -1.359877 -0.847183 90.185997
[R_rear_hand01]
51 103.366196 -6.073594 -10.757982 -177.714203 24.565960 -73.910950 104.101845
52 103.366196 -6.073594 -10.757982 -177.714203 24.565960 -73.910950 104.101845
[R_rear_hand02]
51 100.509819 12.039542 -7.992327 -12.874829 36.868488 72.167213 101.543350
52 100.509819 12.039542 -7.992327 -12.874829 36.868488 72.167213 101.543350
[R_rear_hand03]
51 101.539970 5.215704 5.435467 71.484581 -71.816628 21.513813 101.819031
52 101.539970 5.215704 5.435467 71.484581 -71.816628 21.513813 101.819031
[Rope4_Seg01]
51 0.000000 0.000000 0.000000 94.186165 -34.140060 -166.499222 0.000000
52 0.000000 0.000000 0.000000 94.212265 -35.287342 -165.224716 0.000000
[Rope4_Seg02]
51 139.999985 0.000060 0.000119 86.762543 -29.288706 -6.228604 139.999985
52 139.999985 0.000060 0.000119 68.481155 -28.732212 -2.781959 139.999985
[Rope4_Seg03]
51 139.999924 0.000000 -0.000238 63.792034 -10.552624 39.617912 139.999924
52 139.999924 0.000000 -0.000238 68.079170 -17.046673 34.923386 139.999924
[Rope4_Seg04]
51 139.999985 0.000000 0.000119 7.955564 25.523443 21.248928 139.999985
52 139.999985 0.000000 0.000119 11.369494 25.993582 26.107630 139.999985
[Rope4_Seg05]
51 139.999802 -0.000060 -0.000119 1.554759 14.588024 9.881040 139.999802
52 139.999802 -0.000060 -0.000119 1.940784 15.485120 11.530490 139.999802
[Rope4_Seg06]
51 139.999924 0.000000 0.000060 0.205953 5.479804 3.646432 139.999924
52 139.999924 0.000000 0.000060 0.162368 5.461432 3.991072 139.999924
[Rope4_Seg07]
51 139.999802 0.000000 0.000000 0.111416 3.230104 2.137370 139.999802
52 139.999802 0.000000 0.000000 0.060211 3.156833 2.304096 139.999802
[Rope4_Seg08]
51 139.999924 0.000000 0.000119 -1.497330 1.847831 1.219172 139.999924
52 139.999924 0.000000 0.000119 -1.531331 1.780122 1.306095 139.999924
[Rope4_Seg09]
51 90.185791 0.000060 0.000060 -135.617828 2.228885 0.850567 90.185791
52 90.185791 0.000060 0.000060 -135.617828 2.228885 0.850567 90.185791
[L_rear_hand01]
51 101.696655 -8.392275 -7.654577 -12.874829 -36.868488 107.832764 102.329041
52 101.696655 -8.392275 -7.654577 -12.874829 -36.868488 107.832764 102.329041
[L_rear_hand02]
51 102.726799 -1.568258 5.773216 71.484581 71.816628 158.486160 102.900848
52 102.726799 -1.568258 5.773216 71.484581 71.816628 158.486160 102.900848
[L_rear_hand03]
51 104.552910 9.721220 -10.420293 -177.714203 -24.565960 -106.089035 105.519653
52 104.552910 9.721220 -10.420293 -177.714203 -24.565960 -106.089035 105.519653
